<?xml version="1.0" standalone="no"?>
<!DOCTYPE svg PUBLIC "-//W3C//DTD SVG 20010904//EN"
 "http://www.w3.org/TR/2001/REC-SVG-20010904/DTD/svg10.dtd">
<svg version="1.0" xmlns="http://www.w3.org/2000/svg"
 width="400.000000pt" height="400.000000pt" viewBox="0 0 400.000000 400.000000"
 preserveAspectRatio="xMidYMid meet">
<metadata>
Created by potrace 1.11, written by Peter Selinger 2001-2013
</metadata>
<g transform="translate(0.000000,400.000000) scale(0.100000,-0.100000)"
fill="#000000" stroke="none">
<path d="M1453 2793 c-21 -22 -69 -80 -108 -129 -38 -49 -72 -91 -75 -94 -5
-4 -111 -135 -143 -175 -4 -5 -16 -21 -27 -34 -29 -34 -25 -57 16 -96 43 -42
54 -25 -115 -192 l-125 -124 -72 72 c-65 65 -83 99 -51 99 6 0 8 3 5 6 -4 3 0
21 8 40 20 47 19 139 -1 199 -55 164 -168 283 -331 351 -90 37 -206 40 -269 7
-74 -40 -111 -87 -133 -173 -25 -99 34 -266 132 -372 42 -46 131 -120 141
-119 3 1 18 -5 33 -13 97 -50 234 -58 310 -18 l41 21 72 -70 c67 -65 71 -71
56 -87 -25 -28 -549 -548 -573 -569 -11 -10 -23 -25 -26 -34 -7 -17 8 -39 27
-39 5 0 149 137 318 305 195 193 313 303 320 298 7 -4 146 -140 310 -303 163
-162 305 -295 315 -295 10 0 18 9 20 21 2 17 -67 91 -303 326 l-307 304 75 74
c42 41 105 104 140 139 l65 63 37 -36 c41 -40 62 -44 92 -18 12 9 36 29 54 44
19 14 45 36 59 47 38 32 39 32 145 117 217 173 222 178 206 198 -18 22 -33 20
-64 -6 -43 -39 -99 -83 -116 -92 -9 -5 -18 -12 -21 -16 -3 -4 -34 -31 -70 -59
-36 -28 -72 -57 -80 -64 -8 -7 -46 -36 -83 -66 l-69 -54 -24 24 -24 24 215
214 c182 182 213 217 203 230 -7 9 -13 18 -15 20 -7 10 -64 -42 -246 -224
l-198 -197 -25 23 c-30 28 -30 38 0 70 13 14 72 86 131 160 59 74 116 142 126
152 11 10 19 21 19 25 0 4 14 22 31 40 35 38 43 66 23 83 -11 9 -21 4 -51 -28z"/>
<path d="M1777 2423 c-4 -3 -7 -102 -7 -219 0 -207 1 -213 20 -211 22 1 21 -2
24 117 l1 85 128 0 127 1 0 -102 c0 -97 1 -103 20 -101 22 1 21 -3 21 142 0
298 0 295 -21 295 -18 0 -20 -8 -22 -97 l-3 -98 -122 -1 c-83 -1 -124 3 -125
10 -1 6 -3 40 -4 76 -3 107 -4 110 -17 110 -8 0 -17 -3 -20 -7z"/>
<path d="M2330 2417 c-92 -44 -141 -122 -135 -218 9 -156 153 -251 282 -185
59 30 87 61 107 119 39 115 -16 239 -124 283 -36 15 -101 15 -130 1z m149 -54
c32 -24 68 -87 74 -128 10 -75 -37 -165 -99 -191 -68 -29 -132 -11 -178 48
-71 95 -42 238 59 284 39 18 110 12 144 -13z"/>
<path d="M2679 2378 c0 -29 0 -127 0 -218 0 -160 0 -165 20 -166 20 -1 21 4
21 77 0 56 4 79 13 80 6 0 46 2 87 3 53 1 83 7 102 19 62 42 80 112 45 177
-33 63 -68 77 -187 79 l-100 2 -1 -53z m237 -21 c35 -41 33 -99 -5 -138 -28
-27 -34 -29 -109 -29 l-80 0 -1 101 -1 101 86 -3 c79 -4 87 -6 110 -32z"/>
<path d="M3059 2406 c-1 -32 -1 -379 0 -397 1 -13 21 -16 146 -16 134 1 145 2
145 19 0 16 -10 18 -87 19 -49 1 -105 0 -126 -1 l-38 -2 3 84 3 83 100 1 c92
0 100 2 100 19 0 18 -8 19 -102 19 l-103 0 0 78 0 78 120 0 c114 0 120 1 120
20 0 20 -6 20 -140 19 -135 -2 -140 -2 -141 -23z"/>
<path d="M2291 1605 c-1 -189 1 -213 15 -219 26 -10 29 -1 30 82 1 43 2 86 3
97 1 19 7 21 98 20 85 0 98 2 101 17 3 15 -9 18 -99 20 l-103 3 1 63 c1 34 2
69 2 77 1 12 22 15 122 15 109 0 120 2 117 18 -3 15 -19 17 -144 19 l-141 1
-2 -213z"/>
<path d="M2754 1809 c-38 -11 -102 -72 -120 -115 -31 -74 -19 -174 28 -233 40
-51 88 -75 154 -75 54 -1 68 3 106 29 55 38 98 119 98 184 0 53 -35 135 -71
168 -51 47 -124 63 -195 42z m113 -40 c144 -54 141 -292 -5 -340 -101 -33
-201 50 -202 169 0 126 102 211 207 171z"/>
<path d="M3210 1809 c-74 -31 -124 -98 -135 -182 -26 -190 188 -319 326 -195
105 93 96 271 -17 351 -45 31 -131 45 -174 26z m124 -43 c62 -26 107 -111 99
-185 -19 -152 -189 -214 -276 -100 -109 146 18 351 177 285z"/>
<path d="M3559 1793 c0 -32 0 -307 0 -369 l1 -40 104 1 c93 2 109 5 149 28 61
36 88 85 95 169 5 73 -5 111 -45 166 -35 47 -82 63 -200 68 l-103 4 -1 -27z
m240 -43 c68 -48 90 -156 48 -240 -31 -62 -71 -83 -169 -86 l-78 -3 0 181 0
181 83 -5 c67 -3 90 -9 116 -28z"/>
</g>
</svg>
